<svg id="Layer_1" data-name="Layer 1" xmlns="http://www.w3.org/2000/svg" xmlns:xlink="http://www.w3.org/1999/xlink" viewBox="0 0 168.08 58.83"><defs><clipPath id="clip-path"><circle cx="27.44" cy="29.23" r="25.69" fill="none"/></clipPath><clipPath id="clip-path-3"><circle cx="28.44" cy="29.23" r="25.69" fill="none"/></clipPath></defs><title>TTLogo-New</title><path d="M54.76,32.31A25,25,0,0,1,47.9,47.62a32.32,32.32,0,0,1-3.27,3A31.56,31.56,0,0,1,40.89,53a28.18,28.18,0,0,1-8.4,2.9A27.48,27.48,0,0,1,15.14,53.2a28,28,0,0,1-7.08-5.3,27.22,27.22,0,0,1-4.83-7.41A25.89,25.89,0,0,1,2,23.09,27.16,27.16,0,0,1,11.92,8.58a27.83,27.83,0,0,1,7.81-4.22,28.12,28.12,0,0,1,8.68-1.43A25.46,25.46,0,0,1,44.23,8.37a27.29,27.29,0,0,0-15.8-3.52A26.2,26.2,0,0,0,13.83,11a17.41,17.41,0,0,0-1.45,1.31A17.13,17.13,0,0,0,11,13.7L9.78,15.23c-.4.52-.72,1.08-1.1,1.65a24.57,24.57,0,0,0-3,7.09,22.74,22.74,0,0,0-.59,7.61l.06.93a5,5,0,0,1,.15,1l.13,1,.07.45c.05.13.06.31.11.44l.52,1.82.71,1.75a24.34,24.34,0,0,0,4.1,6.36A27.55,27.55,0,0,0,16.88,50,25,25,0,0,0,32,52.88,26.31,26.31,0,0,0,46.41,46.3,26.07,26.07,0,0,0,54.76,32.31Z" fill="#f6861f"/><path d="M4.75,29.48a23.52,23.52,0,0,0,.75,5.9,25.82,25.82,0,0,1-.74-6.12C4.75,29.33,4.75,29.41,4.75,29.48Z" fill="#ffffff"/><path d="M30,3.71A25.39,25.39,0,0,0,4.75,29.23v0a23.46,23.46,0,1,1,.74,6.12,25.22,25.22,0,0,0,49.76-6.15A25.39,25.39,0,0,0,30,3.71Z" fill="#ffffff"/><g clip-path="url(#clip-path)"><path d="M-1,32.25c6,8.62,20.86,8.63,33.14,0" fill="none" stroke="#f6861f" stroke-miterlimit="10" stroke-width="1.24"/></g><g clip-path="url(#clip-path)"><path d="M1.53,30.5c6.1,8.7,21.05,8.71,33.44,0" fill="none" stroke="#f6861f" stroke-miterlimit="10" stroke-width="1.25"/></g><g clip-path="url(#clip-path-3)"><path d="M0,32.25c6,8.62,20.86,8.63,33.14,0" fill="none" stroke="#f6861f" stroke-miterlimit="10" stroke-width="1.24"/></g><path d="M59.62,12.87c-.46-.87-1.58-1.07-3.14-1-2.45,0-5.55,1.22-8.85,3l-6.16,3.87L21.6,16.53l-5.28,3.19L29.82,26l-7,4.33-7.63-2.48-3.52,2.05,6.59,6.25a5.49,5.49,0,0,0,3.13,1.38c3.79-.08,10.27-2.38,18.36-6.9l12.76-8C57.54,19.51,61,15,59.62,12.87Z" fill="#f6861f"/><path d="M76.85,21.14H71.39V35.09H70.32V21.14H64.86v-1h12Z" fill="#ffffff"/><path d="M83.57,35.3a5.08,5.08,0,0,1-2.14-.45,5.28,5.28,0,0,1-1.71-1.24,5.88,5.88,0,0,1-1.54-4,5.78,5.78,0,0,1,.41-2.17,5.72,5.72,0,0,1,1.12-1.79A5.19,5.19,0,0,1,83.53,24a5,5,0,0,1,2.13.45,5.36,5.36,0,0,1,1.69,1.22,5.78,5.78,0,0,1,1.53,3.94c0,.07,0,.16,0,.26s0,.17,0,.2h-9.6a4.86,4.86,0,0,0,.44,1.75,5,5,0,0,0,1,1.4,4.32,4.32,0,0,0,1.33.92,3.94,3.94,0,0,0,1.62.34,4.09,4.09,0,0,0,1.12-.16,4.49,4.49,0,0,0,1-.43,3.7,3.7,0,0,0,.84-.66,3.08,3.08,0,0,0,.58-.85l.92.25a3.83,3.83,0,0,1-.7,1.08,4.61,4.61,0,0,1-1,.85,5.48,5.48,0,0,1-2.78.76Zm4.28-6.09a5,5,0,0,0-.43-1.76,4.72,4.72,0,0,0-.95-1.38,4.24,4.24,0,0,0-1.33-.9,4.18,4.18,0,0,0-3.23,0,4.26,4.26,0,0,0-1.33.9,4.38,4.38,0,0,0-.92,1.39,5.33,5.33,0,0,0-.41,1.75Z" fill="#ffffff"/><path d="M107.22,35.09h-1V29a5.75,5.75,0,0,0-.64-3.07,2.18,2.18,0,0,0-2-1,3.37,3.37,0,0,0-1.3.25,3.74,3.74,0,0,0-1.1.7A4.68,4.68,0,0,0,100.3,27a5.62,5.62,0,0,0-.58,1.38v6.74h-1V29A5.82,5.82,0,0,0,98,25.92a2.16,2.16,0,0,0-2-1,3.44,3.44,0,0,0-1.28.24,3.71,3.71,0,0,0-1.11.69,4.75,4.75,0,0,0-.88,1.07,5.39,5.39,0,0,0-.59,1.38v6.76h-1V24.17h1v2.6a5.48,5.48,0,0,1,1.79-2.06A4.23,4.23,0,0,1,96.34,24a3.09,3.09,0,0,1,2.24.82,3.48,3.48,0,0,1,1,2.14q1.6-3,4.28-3a2.76,2.76,0,0,1,2.57,1.27,6.92,6.92,0,0,1,.77,3.56Z" fill="#ffffff"/><path d="M115.64,35.3a4.33,4.33,0,0,1-2.5-.75,6.13,6.13,0,0,1-1.76-1.82v6.83h-1V24.17h.94v2.18a5.29,5.29,0,0,1,1.79-1.71,4.67,4.67,0,0,1,4.46-.18,5.45,5.45,0,0,1,1.65,1.27,6,6,0,0,1,1.47,3.92,6.57,6.57,0,0,1-.36,2.16,5.58,5.58,0,0,1-1,1.81,4.86,4.86,0,0,1-1.59,1.23A4.57,4.57,0,0,1,115.64,35.3Zm-.23-.95a3.65,3.65,0,0,0,1.71-.4,4.21,4.21,0,0,0,1.31-1.06,4.84,4.84,0,0,0,.84-1.51,5.28,5.28,0,0,0,.29-1.73,4.85,4.85,0,0,0-.34-1.8,4.91,4.91,0,0,0-.92-1.5,4.5,4.5,0,0,0-1.39-1,3.84,3.84,0,0,0-1.7-.39,3.51,3.51,0,0,0-1.22.24,5.1,5.1,0,0,0-1.22.65,4.33,4.33,0,0,0-1,.93,2.26,2.26,0,0,0-.45,1.11v3.59a4.64,4.64,0,0,0,.67,1.13,5.35,5.35,0,0,0,.95.92,4.21,4.21,0,0,0,1.14.62A3.74,3.74,0,0,0,115.4,34.35Z" fill="#ffffff"/><path d="M127.75,35.3a5,5,0,0,1-2.13-.45,5.27,5.27,0,0,1-1.69-1.23,5.66,5.66,0,0,1-1.11-1.81,6,6,0,0,1,0-4.35A5.73,5.73,0,0,1,124,25.66a5.44,5.44,0,0,1,1.69-1.23,4.9,4.9,0,0,1,2.1-.45,5,5,0,0,1,2.11.45,5.4,5.4,0,0,1,1.7,1.23,5.71,5.71,0,0,1,1.13,1.81,5.92,5.92,0,0,1-1.12,6.15,5.24,5.24,0,0,1-1.7,1.23A5,5,0,0,1,127.75,35.3Zm-4.26-5.61a4.88,4.88,0,0,0,.34,1.82,4.74,4.74,0,0,0,.91,1.48,4.34,4.34,0,0,0,1.35,1,3.93,3.93,0,0,0,3.32,0,4.2,4.2,0,0,0,1.35-1,5.18,5.18,0,0,0,.92-1.5,4.81,4.81,0,0,0,.35-1.84,4.76,4.76,0,0,0-.35-1.82,5,5,0,0,0-.92-1.49,4.4,4.4,0,0,0-1.35-1,3.75,3.75,0,0,0-1.66-.38,3.69,3.69,0,0,0-1.64.38,4.43,4.43,0,0,0-1.37,1,4.85,4.85,0,0,0-.92,1.52A5.05,5.05,0,0,0,123.49,29.69Z" fill="#ffffff"/><path d="M143.54,25h-3.92V35.09h-1.44V25h-3.92V23.73h9.28Z" fill="#f6861f"/><path d="M145.19,35.09V23.73H150a3.09,3.09,0,0,1,1.38.31,3.49,3.49,0,0,1,1.09.83,4,4,0,0,1,.71,1.17,3.58,3.58,0,0,1,.26,1.32,3.9,3.9,0,0,1-.17,1.14,3.54,3.54,0,0,1-.48,1,3.19,3.19,0,0,1-.75.77,2.91,2.91,0,0,1-1,.46l2.75,4.35h-1.63L149.63,31h-3v4.08Zm1.44-5.36h3.44a1.69,1.69,0,0,0,.81-.19,1.93,1.93,0,0,0,.62-.52,2.53,2.53,0,0,0,.4-.76,2.82,2.82,0,0,0,.14-.9,2.43,2.43,0,0,0-.17-.9,2.66,2.66,0,0,0-.45-.75,2,2,0,0,0-.66-.51A1.78,1.78,0,0,0,150,25h-3.34Z" fill="#f6861f"/><path d="M155.81,35.09V23.74h1.44V35.09Z" fill="#f6861f"/><path d="M160,35.09V23.73h4.74a3.09,3.09,0,0,1,1.38.31,3.49,3.49,0,0,1,1.09.83,4,4,0,0,1,.71,1.17,3.58,3.58,0,0,1,.26,1.32,3.92,3.92,0,0,1-.24,1.36,3.76,3.76,0,0,1-.68,1.17,3.31,3.31,0,0,1-1.06.82,3.05,3.05,0,0,1-1.37.3h-3.39v4.08Zm1.44-5.36h3.31a1.75,1.75,0,0,0,.81-.18,1.83,1.83,0,0,0,.62-.51,2.52,2.52,0,0,0,.4-.76,2.85,2.85,0,0,0,.14-.91,2.55,2.55,0,0,0-.62-1.68,2,2,0,0,0-.66-.5,1.84,1.84,0,0,0-.79-.18h-3.22Z" fill="#f6861f"/></svg>