<svg id="Layer_1" data-name="Layer 1" xmlns="http://www.w3.org/2000/svg" xmlns:xlink="http://www.w3.org/1999/xlink" viewBox="0 0 168.26 165.92"><defs><linearGradient id="linear-gradient" x1="10.02" y1="82.96" x2="168.29" y2="82.96" gradientUnits="userSpaceOnUse"><stop offset="0" stop-color="#5db9be"/><stop offset="0.44" stop-color="#1a4666"/></linearGradient></defs><title>TempoLogo3a</title><path d="M15.74,41.76a77.5,77.5,0,0,1,37.65-35A82.14,82.14,0,0,1,66,2.43,83,83,0,0,1,79.24.3a73.92,73.92,0,0,1,13.48,0,78,78,0,0,1,13.36,2.25A86.94,86.94,0,0,1,118.94,7a81.38,81.38,0,0,1,12,6.56,82.66,82.66,0,0,1,20,18.56,77.68,77.68,0,0,1,7.48,11.54,85.82,85.82,0,0,1,5.51,12.63,84.54,84.54,0,0,1,4.34,27.13c0,2.3-.16,4.6-.31,6.89s-.49,4.58-.92,6.84a81.8,81.8,0,0,1-16.71,37.36,87.76,87.76,0,0,1-9.36,10,83.36,83.36,0,0,1-10.88,8.31,81.61,81.61,0,0,1-51.82,12.71,81.08,81.08,0,0,1-25.79-6.78c-2-1-4-1.89-5.91-3-1-.56-1.94-1.06-2.87-1.66l-2.77-1.8c-.94-.58-1.81-1.25-2.69-1.91s-1.78-1.29-2.63-2c-1.67-1.43-3.39-2.78-4.92-4.35l-2.34-2.29-2.2-2.42L25,138.16l-1-1.27-2-2.54a83.09,83.09,0,0,1-6.76-11,95.17,95.17,0,0,0,8.16,9.81l2.26,2.22,1.13,1.11,1.19,1,2.38,2.07,2.49,1.92A78.23,78.23,0,0,0,54.7,153.25c1,.38,2,.62,2.93.94s2,.63,2.95.87c2,.45,4,1,6,1.3l3,.52,3,.33c2,.29,4.06.26,6.08.38a78.34,78.34,0,0,0,23.91-3.23,75.63,75.63,0,0,0,38.56-26.9,73.91,73.91,0,0,0,.55-88.37,75.55,75.55,0,0,0-50-30,72,72,0,0,0-12.11-.8,75.21,75.21,0,0,0-24.07,4.05,75.76,75.76,0,0,0-11.41,4.82c-1.8,1-3.67,2-5.39,3.13-.87.57-1.77,1.11-2.63,1.7l-2.55,1.82c-.87.59-1.68,1.26-2.49,1.92s-1.64,1.31-2.44,2c-1.53,1.44-3.16,2.8-4.59,4.35A86.94,86.94,0,0,0,15.74,41.76Z" fill="url(#linear-gradient)"/><path d="M58.87,35.06c3.43.06,6.86.15,10.29.18a29.5,29.5,0,0,0,5.35,0l.55.2c3.13,3.53,6.56,6.75,9.85,10.12,4.32,4.42,8.67,8.8,13,13.21.16.17.3.37.61.76l-7.71.21c-5.35.14-10.7.27-16.05.44a2,2,0,0,1-2-1Q66,47.5,59.09,35.91a3.49,3.49,0,0,0-.51-.55Z" fill="#fea34b"/><path d="M138.92,91.85a15.06,15.06,0,0,1-4.47.68c-11.87.29-23.73.6-35.6.85a2.81,2.81,0,0,0-2.15,1q-8.51,8.83-17,17.61Q67,125.05,54.23,138.12c-.57-.2,1.34.71,0,.25s-16.61-1-17.85-1.46c7.09-11.13,17.13-26.33,24.22-37.46C62,97.21,63.45,95,65,92.51c-3,.24-5.73.39-8.47.69-9.73,1.06-19.32.15-28.86-1.69-3.49-.67-7-1.19-10.17-2.94a45.75,45.75,0,0,1-3.93-3,19,19,0,0,1-2.08-1.66c-1.2-1.11-.67-8.26-2.76-15.85C6.46,59.76,1.55,50.93.16,49.54s7,.32,8.47,1.81c5.52,5.77,11.22,11.36,16.82,17.05a2.56,2.56,0,0,0,2.12.65L77.5,68.5c13.43-.15,26.86-.37,40.29-.37a100,100,0,0,1,14,1c3.49.49,6.37,2.74,9.37,4.56,3.61,2.19,5,5.46,5,9.56a5.72,5.72,0,0,1-.37,2.53C145.11,87.45,141.2,91.33,138.92,91.85Z" fill="#fea34b"/></svg>