<?xml version="1.0" encoding="utf-8"?>
<!-- Generator: Adobe Illustrator 16.0.4, SVG Export Plug-In . SVG Version: 6.00 Build 0)  -->
<!DOCTYPE svg PUBLIC "-//W3C//DTD SVG 1.1//EN" "http://www.w3.org/Graphics/SVG/1.1/DTD/svg11.dtd">
<svg version="1.1" id="Layer_1" xmlns="http://www.w3.org/2000/svg" xmlns:xlink="http://www.w3.org/1999/xlink" x="0px" y="0px"
	 width="27.134px" height="31.252px" viewBox="0 0 27.134 31.252" enable-background="new 0 0 27.134 31.252" xml:space="preserve">
<path fill="#006e8d" d="M2.394,30.057c0,0.658-0.539,1.195-1.199,1.195S-0.004,30.715,0,30.049c0-2.184,0.896-3.82,2.139-5.015
	c1.709-1.654,4.109-2.387,5.547-2.506c0.295-0.035,0.555-0.145,0.729-0.324c0.107-0.104,0.184-0.24,0.213-0.385
	c-1.135-0.93-1.649-2.209-2.084-3.301c-0.211-0.52-0.396-0.971-0.512-1.09l-0.018-0.01l-0.004-0.01H5.992v-0.008
	c-0.506-0.459-1.207-1.338-1.582-2.326c-0.371-0.973-0.461-2.064,0.098-3.053c-0.299-0.896-0.447-1.893-0.461-2.918
	C4.035,7.807,4.248,6.477,4.658,5.266l0.037-0.084c0.594-1.707,1.57-2.951,2.836-3.804c1.358-0.904,3.024-1.33,4.905-1.373
	c0.695-0.008,1.654-0.025,2.584,0.145c1.053,0.189,2.062,0.598,2.682,1.469c1.262-0.111,2.361,0.588,3.232,1.602
	c1.057,1.228,1.812,3.019,1.974,4.076c0.123,0.785,0.123,1.613,0.012,2.473c-0.08,0.684-0.238,1.4-0.443,2.125
	c0.645,1.023,0.562,2.158,0.18,3.172c-0.375,0.99-1.07,1.869-1.578,2.328l-0.014,0.016l-0.025,0.02v0.008
	c-0.123,0.111-0.307,0.57-0.52,1.092c-0.422,1.064-0.93,2.328-2.021,3.248c0.021,0.154,0.104,0.309,0.217,0.428
	c0.18,0.188,0.445,0.289,0.734,0.324c1.432,0.119,3.833,0.852,5.55,2.506c1.232,1.185,2.133,2.832,2.133,5.023
	c0,0.658-0.541,1.195-1.197,1.195c-0.666,0-1.199-0.537-1.199-1.203c0.004-1.434-0.588-2.508-1.398-3.283
	c-1.265-1.218-3.041-1.765-4.097-1.851c-0.861-0.076-1.65-0.443-2.22-1.016c-0.646-0.639-1.574-3.01-0.363-3.76
	c0.836-0.512,1.275-1.604,1.637-2.508c0.328-0.809,0.605-1.508,1.142-1.994l0.006,0.008l0.008-0.008
	c0.303-0.273,0.738-0.811,0.967-1.416c0.158-0.426,0.201-0.879-0.084-1.193h0.004c-0.311-0.342-0.422-0.973-0.281-1.416
	c0.238-0.752,0.408-1.467,0.494-2.141c0.076-0.639,0.08-1.236-0.012-1.816c-0.111-0.725-0.652-1.979-1.42-2.865
	c-0.417-0.494-0.861-0.836-1.228-0.785c-0.424,0.068-0.836,0-1.207-0.17c-0.328-0.154-0.617-0.392-0.84-0.699L15.77,3.042
	c-0.18-0.281-0.652-0.443-1.182-0.537c-0.707-0.129-1.518-0.121-2.102-0.104c-1.424,0.025-2.664,0.324-3.623,0.973
	C8.027,3.936,7.373,4.78,6.958,5.965L6.931,6.051c-0.32,0.955-0.496,2.012-0.482,3.027v0.008c0.004,0.904,0.158,1.783,0.465,2.508
	c0.127,0.24,0.17,0.529,0.119,0.795c-0.119,0.783-0.768,0.809-0.383,1.832c0.221,0.58,0.643,1.109,0.945,1.398l0.039,0.035
	l0.012,0.008c0.526,0.486,0.807,1.178,1.124,1.969c0.365,0.904,0.809,2.014,1.641,2.525c0.379,0.195,0.631,0.598,0.631,1.057
	c0.004,1.023-0.158,1.92-0.926,2.686c-0.576,0.572-1.367,0.947-2.229,1.016C6.828,25,5.058,25.547,3.791,26.766
	C2.982,27.541,2.394,28.615,2.394,30.057"/>
</svg>
