<?xml version="1.0" encoding="utf-8"?>
<!-- Generator: Adobe Illustrator 16.0.0, SVG Export Plug-In . SVG Version: 6.00 Build 0)  -->
<!DOCTYPE svg PUBLIC "-//W3C//DTD SVG 1.1//EN" "http://www.w3.org/Graphics/SVG/1.1/DTD/svg11.dtd">
<svg version="1.1" id="Layer_1" xmlns="http://www.w3.org/2000/svg" xmlns:xlink="http://www.w3.org/1999/xlink" x="0px" y="0px"
	 width="283.375px" height="112.25px" viewBox="0 0 283.375 112.25" enable-background="new 0 0 283.375 112.25"
	 xml:space="preserve">
<path fill="#293145" d="M242.455,32.102L210.32,2.684c0,0,7.348-3.653,9.543-2.436c2.195,1.217,37.506,20.083,37.506,20.083
	L242.455,32.102z"/>
<path fill="#010101" stroke="#FFFFFF" stroke-miterlimit="10" d="M26.089,18.988"/>
<path fill="#293145" d="M208.449,72.952L276.8,19.009c4.81-3.796,7.183-8.806,5.301-11.19l0,0c-1.881-2.384-7.307-1.24-12.738,3.047
	l-67.729,53.451"/>
<path fill="#293145" d="M249.269,40.737l21.145,38.091c0,0,5.26-6.297,4.586-8.715c-0.674-2.418-10.816-41.146-10.816-41.146
	L249.269,40.737z"/>
<line fill="none" stroke="#FDFEFF" stroke-miterlimit="10" x1="257.059" y1="19.939" x2="242.144" y2="31.709"/>
<path fill="#293145" d="M203.65,66.668l-7.785-9.183c0,0,2.023-1.006,2.628-0.671s10.69,5.64,10.69,5.64L203.65,66.668z"/>
<path fill="#293145" d="M0.506,56.525c-7.609-10.094,70.998,106.283,204.911,5.24c17.835-13.457,17.104-0.768,4,10.13
	C199.5,80.144,82.839,165.738,0.506,56.525z"/>
</svg>
