<?xml version="1.0" encoding="utf-8"?>
<!-- Generator: Adobe Illustrator 16.0.4, SVG Export Plug-In . SVG Version: 6.00 Build 0)  -->
<!DOCTYPE svg PUBLIC "-//W3C//DTD SVG 1.1//EN" "http://www.w3.org/Graphics/SVG/1.1/DTD/svg11.dtd">
<svg version="1.1" id="Layer_1" xmlns="http://www.w3.org/2000/svg" xmlns:xlink="http://www.w3.org/1999/xlink" x="0px" y="0px"
	 width="60.667px" height="58.833px" viewBox="0 0 60.667 58.833" enable-background="new 0 0 60.667 58.833" xml:space="preserve">
<g>
	<path fill="#F6861F" d="M54.755,32.312c-0.379,5.521-2.803,11.047-6.86,15.312c-1.002,1.059-2.127,2.041-3.274,2.961
		c-1.166,0.865-2.42,1.695-3.728,2.404c-2.628,1.373-5.431,2.4-8.396,2.896c-5.902,1.031-12.117,0.07-17.359-2.686
		c-2.644-1.367-5.019-3.197-7.083-5.303c-2.022-2.203-3.628-4.701-4.829-7.41c-2.388-5.398-2.819-11.645-1.19-17.395
		c1.642-5.719,5.057-11.022,9.883-14.51c2.381-1.817,5.055-3.278,7.809-4.217c2.841-0.898,5.782-1.455,8.679-1.427
		c5.867,0.02,11.535,1.969,15.82,5.428C39.412,5.632,33.849,4.364,28.425,4.85c-5.384,0.464-10.599,2.709-14.598,6.133
		c-0.515,0.427-1.021,0.856-1.454,1.308c-0.438,0.457-0.959,0.894-1.349,1.408l-1.243,1.526c-0.401,0.516-0.723,1.079-1.104,1.655
		c-1.367,2.183-2.404,4.63-3.008,7.087c-0.665,2.484-0.781,5.083-0.587,7.608l0.065,0.932c0.074,0.318,0.133,0.634,0.145,0.966
		l0.13,0.969l0.071,0.453c0.054,0.125,0.058,0.315,0.11,0.438l0.525,1.824l0.708,1.747c1.013,2.293,2.419,4.49,4.097,6.359
		c1.737,1.827,3.75,3.399,5.944,4.698c4.483,2.621,9.862,3.453,15.144,2.916c5.207-0.666,10.436-2.914,14.391-6.578
		C50.617,42.724,53.5,37.734,54.755,32.312z"/>
</g>
<ellipse fill="#65879C" cx="30.005" cy="29.23" rx="25.25" ry="25.521"/>
<circle fill="#FFFFFF" cx="28.25" cy="29.48" r="23.5"/>
<g>
	<g>
		<g>
			<defs>
				<circle id="SVGID_1_" cx="27.438" cy="29.23" r="25.688"/>
			</defs>
			<clipPath id="SVGID_2_">
				<use xlink:href="#SVGID_1_"  overflow="visible"/>
			</clipPath>
			<path clip-path="url(#SVGID_2_)" fill="none" stroke="#F6861F" stroke-width="1.2412" stroke-miterlimit="10" d="M-1,32.247
				c6.042,8.619,20.863,8.629,33.14,0.024"/>
		</g>
	</g>
	<g>
		<g>
			<defs>
				<circle id="SVGID_3_" cx="27.438" cy="29.23" r="25.688"/>
			</defs>
			<clipPath id="SVGID_4_">
				<use xlink:href="#SVGID_3_"  overflow="visible"/>
			</clipPath>
			<path clip-path="url(#SVGID_4_)" fill="none" stroke="#F6861F" stroke-width="1.2524" stroke-miterlimit="10" d="M1.534,30.499
				c6.097,8.695,21.052,8.705,33.44,0.024"/>
		</g>
	</g>
</g>
<g>
	<g>
		<defs>
			<circle id="SVGID_5_" cx="28.438" cy="29.23" r="25.688"/>
		</defs>
		<clipPath id="SVGID_6_">
			<use xlink:href="#SVGID_5_"  overflow="visible"/>
		</clipPath>
		<path clip-path="url(#SVGID_6_)" fill="none" stroke="#F6861F" stroke-width="1.2412" stroke-miterlimit="10" d="M0,32.247
			c6.042,8.619,20.863,8.629,33.14,0.024"/>
	</g>
</g>
<path fill="#F6861F" d="M59.625,12.867c-0.463-0.871-1.58-1.069-3.14-1.035c-2.45,0.05-5.546,1.218-8.848,3.046l-6.158,3.87
	l-19.877-2.22l-5.28,3.193l13.502,6.312l-7.038,4.33l-7.627-2.482l-3.522,2.054l6.595,6.245c0,0,1.572,1.418,3.131,1.384
	c3.788-0.081,10.268-2.383,18.363-6.899l12.758-7.972C57.539,19.511,61.007,15.036,59.625,12.867L59.625,12.867z"/>
</svg>
