<?xml version="1.0" encoding="utf-8"?>
<!-- Generator: Adobe Illustrator 21.1.0, SVG Export Plug-In . SVG Version: 6.00 Build 0)  -->
<svg version="1.1" id="Layer_1" xmlns="http://www.w3.org/2000/svg" xmlns:xlink="http://www.w3.org/1999/xlink" x="0px" y="0px"
	 viewBox="0 0 669 146" style="enable-background:new 0 0 669 146;" xml:space="preserve">
<style type="text/css">
	.st0{fill:#5DB9BE;}
	.st1{fill:#006E8D;}
	.st2{fill:url(#SVGID_1_);}
	.st3{fill:#FEA34B;}
</style>
<g>
	<g>
		<path class="st0" d="M488.2,38.3v66.8h-5.4V38.3H457v-4.8h56.7v4.8H488.2z"/>
		<path class="st0" d="M568.9,105.2l-21.3-30.4h-15v30.4h-5.4V33.5H549c15,0,21.6,9.8,21.6,20.5c0,9.9-5.4,18.9-17.3,20.2l21.9,30.9
			H568.9z M548.8,38.3h-16.1v31.6h16.1c12.4,0,16.3-7.6,16.3-15.9C565.1,46.1,561.1,38.3,548.8,38.3z"/>
		<path class="st0" d="M590.8,105.2V33.5h5.4v71.6H590.8z"/>
		<path class="st0" d="M638.4,76h-16.3v29.1h-5.4V33.5h21.7c14.8,0,21.6,10.3,21.6,21.3S653.2,76,638.4,76z M638.1,38.3h-16v32.9h16
			c12.4,0,16.5-8.1,16.5-16.4S650.4,38.3,638.1,38.3z"/>
	</g>
	<g>
		<path class="st1" d="M49.8,12.1l0,93.2l-5.6,0l0-93.2L9,12.1L9,7l75.9,0l0,5.1L49.8,12.1z"/>
		<path class="st1" d="M142.1,58.9c0,1.5-0.2,4.4-0.5,6.2l-54.6,0c-1.5,19.5,7.7,37.2,31.9,37.2c8.5,0,17.4-3.9,22.7-8.2l0,4.9
			c-5.8,4.7-14.6,8-25.6,8c-20.2,0-34.5-15.2-34.5-37.8c0-23.6,16.8-36.8,32.2-36.8C129.3,32.4,142.1,43.3,142.1,58.9z M114.2,37
			c-11.5,0-23.3,7-26.6,23.9l49.1,0c0,0,0.2-2.3,0.2-3.3C136.8,46.3,127.6,37,114.2,37z"/>
		<path class="st1" d="M263.7,105.2l0-43.2c0-19.2-7.7-24.4-18.6-24.4c-13.3,0-25.6,13.3-25.6,26l0,41.6l-5.4,0l0-43.2
			c0-19.2-7.9-24.4-18.7-24.4c-13.3,0-25.5,13.3-25.5,26l0,41.6l-5.4,0l0-70.8l4.9,0l0.2,16.2c5.1-10.5,15.1-18.2,26.6-18.2
			c13.5,0,20,7.5,22.2,18.7c5.6-11,16.1-18.7,27.6-18.7c16.1,0,23.2,10.8,23.2,28.5l0,44.2L263.7,105.2z"/>
		<path class="st1" d="M299.8,34.5l0.2,18c4.9-12.9,17.6-20,30.4-20c19.4,0,34.5,15.2,34.5,37.3c0,22.1-15.1,37.3-34.5,37.3
			c-12.8,0-25.1-7-30.1-19.2l0,49.1l-5.4,0l0-102.7L299.8,34.5z M329.9,102.3c16.3,0,29.6-12.3,29.6-32.4
			c0-20.3-13.3-32.4-29.6-32.4c-16.4,0-29.9,12.1-29.9,32.4C300,90,313.5,102.3,329.9,102.3z"/>
	</g>
	<g>
		<g>
			<linearGradient id="SVGID_1_" gradientUnits="userSpaceOnUse" x1="371.4947" y1="67.2912" x2="452.4941" y2="67.2912">
				<stop  offset="0.5614" style="stop-color:#1A4666"/>
				<stop  offset="1" style="stop-color:#5DB9BE"/>
			</linearGradient>
			<path class="st2" d="M374.4,46.2c4-7.8,10.9-14.3,19.3-17.9c2.1-0.9,4.3-1.6,6.5-2.2c2.2-0.5,4.5-0.9,6.8-1.1
				c4.6-0.3,9.2,0,13.7,1.2c9,2.3,17.2,7.7,22.9,15.1c2.9,3.7,5.1,7.9,6.7,12.3c1.5,4.5,2.2,9.2,2.2,13.9c0,9.4-3.3,18.8-9.2,26.1
				c-5.9,7.3-14.1,12.8-23.1,14.8c-4.5,1.1-9.2,1.5-13.7,1.1c-4.6-0.5-9.1-1.6-13.2-3.5c-8.3-3.8-15.1-10.3-19-18.1
				c5.1,7.1,12.2,12.5,20.2,15.3c7.9,2.8,16.7,2.9,24.5,0.5c1-0.3,2-0.6,2.9-1c0.9-0.4,1.9-0.7,2.8-1.2l2.7-1.4
				c0.9-0.5,1.7-1.1,2.6-1.7c3.3-2.3,6.3-5.2,8.7-8.4c2.5-3.2,4.3-6.9,5.6-10.7l0.5-1.4c0.1-0.5,0.2-1,0.4-1.5l0.4-1.5l0.2-0.7
				c0-0.2,0.1-0.5,0.1-0.7l0.4-3l0.1-3c0-4-0.6-8.1-1.8-11.9c-1.3-3.8-3.2-7.4-5.5-10.7c-4.7-6.7-11.8-11.4-19.6-14
				c-7.8-2.4-16.6-2.5-24.5,0.3C386.8,33.7,379.6,39.1,374.4,46.2z"/>
		</g>
		<g>
			<path class="st3" d="M396.5,42.8c1.8,0,3.5,0.1,5.3,0.1c0.9,0,1.8,0.2,2.7,0c0.1,0,0.2,0.1,0.3,0.1c1.6,1.8,3.4,3.5,5,5.2
				c2.2,2.3,4.4,4.5,6.7,6.8c0.1,0.1,0.2,0.2,0.3,0.4c-1.4,0-2.7,0.1-3.9,0.1c-2.7,0.1-5.5,0.1-8.2,0.2c-0.5,0-0.8-0.1-1-0.5
				c-2.3-4-4.7-7.9-7-11.9c-0.1-0.1-0.2-0.2-0.3-0.3C396.4,42.9,396.4,42.8,396.5,42.8z"/>
			<path class="st3" d="M437.5,71.8c-0.7,0.2-1.5,0.3-2.3,0.3c-6.1,0.2-12.1,0.3-18.2,0.4c-0.5,0-0.8,0.2-1.1,0.5
				c-2.9,3-5.8,6-8.7,9c-4.3,4.5-8.7,8.9-13,13.4c-0.3-0.1,0.7,0.4,0,0.1c-0.6-0.2-8.5-0.5-9.1-0.7c3.6-5.7,8.8-13.5,12.4-19.2
				c0.7-1.1,1.4-2.3,2.2-3.5c-1.5,0.1-2.9,0.2-4.3,0.4c-5,0.5-9.9,0.1-14.8-0.9c-1.8-0.3-3.6-0.6-5.2-1.5c-0.8-0.4-1.3-1-2-1.5
				c-0.4-0.3-0.7-0.5-1.1-0.9c-0.6-0.6-0.3-4.2-1.4-8.1c-1.2-4.3-3.7-8.8-4.4-9.5c-0.7-0.7,3.6,0.2,4.3,0.9c2.8,3,5.7,5.8,8.6,8.7
				c0.3,0.3,0.7,0.3,1.1,0.3c8.5-0.1,17-0.2,25.6-0.3c6.9-0.1,13.7-0.2,20.6-0.2c2.4,0,4.8,0.2,7.1,0.5c1.8,0.3,3.3,1.4,4.8,2.3
				c1.8,1.1,2.6,2.8,2.6,4.9c0,0.2,0.1,0.5-0.2,1.3C440.6,69.6,438.6,71.6,437.5,71.8z"/>
		</g>
	</g>
</g>
</svg>
