<?xml version="1.0" encoding="utf-8"?>
<!-- Generator: Adobe Illustrator 16.0.4, SVG Export Plug-In . SVG Version: 6.00 Build 0)  -->
<!DOCTYPE svg PUBLIC "-//W3C//DTD SVG 1.1//EN" "http://www.w3.org/Graphics/SVG/1.1/DTD/svg11.dtd">
<svg version="1.1" id="Layer_1" xmlns="http://www.w3.org/2000/svg" xmlns:xlink="http://www.w3.org/1999/xlink" x="0px" y="0px"
	 width="60.667px" height="58.833px" viewBox="0 0 60.667 58.833" enable-background="new 0 0 60.667 58.833" xml:space="preserve">
<g>
	<path fill="#F6861F" d="M54.755,32.312c-0.379,5.521-2.803,11.047-6.86,15.312c-1.002,1.06-2.127,2.041-3.274,2.961
		c-1.166,0.865-2.42,1.695-3.728,2.404c-2.628,1.373-5.431,2.4-8.396,2.896c-5.902,1.031-12.118,0.07-17.359-2.686
		c-2.644-1.367-5.019-3.197-7.083-5.304c-2.022-2.203-3.628-4.701-4.829-7.41c-2.388-5.397-2.819-11.645-1.19-17.395
		c1.642-5.719,5.057-11.022,9.883-14.51c2.381-1.817,5.055-3.278,7.809-4.217c2.841-0.898,5.782-1.455,8.679-1.427
		c5.867,0.02,11.535,1.969,15.82,5.428C39.412,5.632,33.849,4.364,28.425,4.85c-5.384,0.464-10.599,2.709-14.598,6.133
		c-0.515,0.427-1.021,0.856-1.454,1.308c-0.438,0.457-0.959,0.894-1.349,1.408l-1.243,1.526c-0.401,0.516-0.723,1.079-1.104,1.655
		c-1.367,2.183-2.404,4.63-3.008,7.087c-0.665,2.484-0.781,5.083-0.587,7.608l0.065,0.932c0.074,0.318,0.133,0.635,0.145,0.967
		l0.13,0.969l0.071,0.453c0.054,0.125,0.058,0.314,0.11,0.438l0.525,1.824l0.708,1.747c1.013,2.293,2.419,4.49,4.097,6.359
		c1.737,1.827,3.75,3.399,5.944,4.698c4.483,2.621,9.862,3.453,15.144,2.916c5.207-0.666,10.436-2.914,14.391-6.578
		C50.617,42.724,53.5,37.734,54.755,32.312z"/>
</g>
<ellipse fill="#65879C" cx="30.005" cy="29.23" rx="25.25" ry="25.521"/>
<circle fill="#FFFFFF" cx="28.25" cy="29.48" r="23.5"/>
<circle fill="none" cx="27.438" cy="29.23" r="25.688"/>
<circle fill="none" cx="27.438" cy="29.23" r="25.688"/>
<circle fill="none" cx="28.438" cy="29.23" r="25.688"/>
<path fill="#F6861F" d="M14.142,48.26c0,0.811-0.664,1.473-1.478,1.473c-0.813,0-1.477-0.662-1.472-1.482
	c0-2.691,1.104-4.707,2.636-6.18c2.106-2.039,5.063-2.941,6.835-3.088c0.363-0.043,0.684-0.178,0.898-0.4
	c0.132-0.127,0.227-0.295,0.262-0.475c-1.398-1.145-2.032-2.721-2.568-4.066c-0.26-0.641-0.488-1.195-0.63-1.344l-0.022-0.012
	l-0.005-0.012h-0.021v-0.012c-0.624-0.566-1.487-1.646-1.95-2.864c-0.457-1.2-0.568-2.544,0.121-3.763
	c-0.368-1.104-0.551-2.333-0.568-3.596c-0.014-1.597,0.248-3.236,0.753-4.728l0.045-0.104c0.732-2.103,1.935-3.636,3.495-4.688
	c1.673-1.113,3.726-1.639,6.044-1.692c0.856-0.009,2.039-0.03,3.184,0.179c1.297,0.233,2.542,0.737,3.305,1.811
	c1.555-0.137,2.908,0.725,3.982,1.974c1.303,1.513,2.234,3.72,2.434,5.022c0.15,0.967,0.15,1.988,0.014,3.047
	c-0.098,0.842-0.293,1.726-0.547,2.619c0.795,1.261,0.693,2.659,0.223,3.908c-0.463,1.219-1.318,2.303-1.945,2.87l-0.016,0.018
	l-0.031,0.025v0.01c-0.152,0.137-0.379,0.701-0.641,1.348c-0.52,1.309-1.146,2.865-2.492,4c0.027,0.189,0.129,0.381,0.268,0.529
	c0.223,0.23,0.549,0.355,0.906,0.398c1.764,0.145,4.723,1.049,6.838,3.088c1.518,1.459,2.629,3.49,2.629,6.188
	c0,0.811-0.666,1.473-1.475,1.473c-0.82,0-1.479-0.662-1.479-1.482c0.006-1.766-0.725-3.09-1.723-4.045
	c-1.557-1.5-3.748-2.174-5.047-2.279c-1.061-0.094-2.033-0.547-2.736-1.254c-0.797-0.787-1.941-3.709-0.449-4.633
	c1.031-0.631,1.572-1.977,2.018-3.09c0.404-0.996,0.746-1.857,1.408-2.457l0.008,0.01l0.01-0.01c0.373-0.334,0.91-1,1.191-1.744
	c0.195-0.526,0.248-1.083-0.104-1.47h0.004c-0.383-0.422-0.52-1.2-0.346-1.745c0.293-0.928,0.502-1.809,0.609-2.639
	c0.094-0.788,0.098-1.523-0.016-2.237c-0.137-0.894-0.803-2.438-1.75-3.531c-0.512-0.609-1.061-1.03-1.514-0.967
	c-0.521,0.084-1.029,0-1.486-0.209c-0.404-0.189-0.76-0.483-1.035-0.861l-0.092-0.12c-0.223-0.347-0.804-0.546-1.457-0.662
	c-0.872-0.159-1.871-0.149-2.591-0.128c-1.754,0.031-3.282,0.399-4.464,1.199c-1.03,0.692-1.836,1.732-2.347,3.192l-0.033,0.106
	c-0.395,1.177-0.611,2.479-0.594,3.73v0.01c0.005,1.115,0.194,2.198,0.573,3.091c0.156,0.296,0.209,0.652,0.147,0.979
	c-0.147,0.965-0.947,0.996-0.473,2.257c0.272,0.715,0.792,1.367,1.165,1.722l0.047,0.043l0.015,0.012
	c0.648,0.596,0.995,1.451,1.385,2.426c0.45,1.113,0.997,2.48,2.022,3.111c0.467,0.238,0.777,0.736,0.777,1.301
	c0.005,1.26-0.195,2.367-1.141,3.311c-0.71,0.705-1.685,1.166-2.747,1.25c-1.305,0.107-3.486,0.781-5.047,2.283
	C14.867,45.161,14.142,46.483,14.142,48.26"/>
<g>
	<defs>
		<rect id="SVGID_1_" x="27.417" y="5.98" width="34.25" height="52.853"/>
	</defs>
	<clipPath id="SVGID_2_">
		<use xlink:href="#SVGID_1_"  overflow="visible"/>
	</clipPath>
	<path clip-path="url(#SVGID_2_)" fill="#65879C" d="M14.142,48.26c0,0.811-0.664,1.473-1.478,1.473
		c-0.813,0-1.477-0.662-1.472-1.482c0-2.691,1.104-4.707,2.636-6.18c2.106-2.039,5.063-2.941,6.835-3.088
		c0.363-0.043,0.684-0.178,0.898-0.4c0.132-0.127,0.227-0.295,0.262-0.475c-1.398-1.145-2.032-2.721-2.568-4.066
		c-0.26-0.641-0.488-1.195-0.63-1.344l-0.022-0.012l-0.005-0.012h-0.021v-0.012c-0.624-0.566-1.487-1.646-1.95-2.864
		c-0.457-1.2-0.568-2.544,0.121-3.763c-0.368-1.104-0.551-2.333-0.568-3.596c-0.014-1.597,0.248-3.236,0.753-4.728l0.045-0.104
		c0.732-2.103,1.935-3.636,3.495-4.688c1.673-1.113,3.726-1.639,6.044-1.692c0.856-0.009,2.039-0.03,3.184,0.179
		c1.297,0.233,2.542,0.737,3.305,1.811c1.555-0.137,2.908,0.725,3.982,1.974c1.303,1.513,2.234,3.72,2.434,5.022
		c0.15,0.967,0.15,1.988,0.014,3.047c-0.098,0.842-0.293,1.726-0.547,2.619c0.795,1.261,0.693,2.659,0.223,3.908
		c-0.463,1.219-1.318,2.303-1.945,2.87l-0.016,0.018l-0.031,0.025v0.01c-0.152,0.137-0.379,0.701-0.641,1.348
		c-0.52,1.309-1.146,2.865-2.492,4c0.027,0.189,0.129,0.381,0.268,0.529c0.223,0.23,0.549,0.355,0.906,0.398
		c1.764,0.145,4.723,1.049,6.838,3.088c1.518,1.459,2.629,3.49,2.629,6.188c0,0.811-0.666,1.473-1.475,1.473
		c-0.82,0-1.479-0.662-1.479-1.482c0.006-1.766-0.725-3.09-1.723-4.045c-1.557-1.5-3.748-2.174-5.047-2.279
		c-1.061-0.094-2.033-0.547-2.736-1.254c-0.797-0.787-1.941-3.709-0.449-4.633c1.031-0.631,1.572-1.977,2.018-3.09
		c0.404-0.996,0.746-1.857,1.408-2.457l0.008,0.01l0.01-0.01c0.373-0.334,0.91-1,1.191-1.744c0.195-0.526,0.248-1.083-0.104-1.47
		h0.004c-0.383-0.422-0.52-1.2-0.346-1.745c0.293-0.928,0.502-1.809,0.609-2.639c0.094-0.788,0.098-1.523-0.016-2.237
		c-0.137-0.894-0.803-2.438-1.75-3.531c-0.512-0.609-1.061-1.03-1.514-0.967c-0.521,0.084-1.029,0-1.486-0.209
		c-0.404-0.189-0.76-0.483-1.035-0.861l-0.092-0.12c-0.223-0.347-0.804-0.546-1.457-0.662c-0.872-0.159-1.871-0.149-2.591-0.128
		c-1.754,0.031-3.282,0.399-4.464,1.199c-1.03,0.692-1.836,1.732-2.347,3.192l-0.033,0.106c-0.395,1.177-0.611,2.479-0.594,3.73
		v0.01c0.005,1.115,0.194,2.198,0.573,3.091c0.156,0.296,0.209,0.652,0.147,0.979c-0.147,0.965-0.947,0.996-0.473,2.257
		c0.272,0.715,0.792,1.367,1.165,1.722l0.047,0.043l0.015,0.012c0.648,0.596,0.995,1.451,1.385,2.426
		c0.45,1.113,0.997,2.48,2.022,3.111c0.467,0.238,0.777,0.736,0.777,1.301c0.005,1.26-0.195,2.367-1.141,3.311
		c-0.71,0.705-1.685,1.166-2.747,1.25c-1.305,0.107-3.486,0.781-5.047,2.283C14.867,45.161,14.142,46.483,14.142,48.26"/>
</g>
</svg>
