<svg id="Layer_1" data-name="Layer 1" xmlns="http://www.w3.org/2000/svg" viewBox="0 0 300 200"><title>ow-icon</title><path d="M228,47.5H207.12L196.47,30.83a7.21,7.21,0,0,0-6.08-3.33h-7.94c-5.37,0,0,11,1.78,16,5.66,15.71,11.21,31,16.21,47-13.51,1.58-26.55,1.08-40.16,1.08l-8.7-10.67a6.54,6.54,0,0,0-5.07-2.41h-2.94c-4.3,0-5.63.94-3.78,5.38L146.53,100l-6.74,16.13c-1.85,4.43-.52,5.37,3.78,5.38h2.94c2.22,0,5-2.79,5.79-3.27l8-9.8c13.74,0,26.4,1.08,40.13,1.08-5,15.95-10.56,31.26-16.21,47-1.82,5.06-7.16,16-1.78,16h8c2.09,0,5.52-2.57,7.07-5l9.59-15h.25l14.06-22H221l14.06-22h48.57a13.86,13.86,0,0,0,4.41-.71,12,12,0,0,0,3.61-1.93,9.27,9.27,0,0,0,2.44-2.86,7.36,7.36,0,0,0,.9-3.49h0a7.36,7.36,0,0,0-.9-3.49,9.28,9.28,0,0,0-2.44-2.86A12,12,0,0,0,288,91.21a13.83,13.83,0,0,0-4.41-.71h-48.8l-8.1-12.68L221.4,69.5h0l-8.82-13.8-5.32-8.33" stroke="#000" stroke-miterlimit="10" stroke-width="4"/><line x1="139.99" y1="100" x2="2.99" y2="100" fill="none" stroke="#000" stroke-miterlimit="10" stroke-width="1.37"/><line x1="207.99" y1="47.5" x2="227.99" y2="47.5" fill="none" stroke="#000" stroke-miterlimit="10" stroke-width="4"/><line x1="217.99" y1="69.5" x2="237.99" y2="69.5" fill="none" stroke="#000" stroke-miterlimit="10" stroke-width="4"/><line x1="219.99" y1="130.5" x2="239.99" y2="130.5" fill="none" stroke="#000" stroke-miterlimit="10" stroke-width="4"/><line x1="203.99" y1="152.5" x2="223.99" y2="152.5" fill="none" stroke="#000" stroke-miterlimit="10" stroke-width="4"/></svg>